<svg xmlns="http://www.w3.org/2000/svg" xmlns:xlink="http://www.w3.org/1999/xlink" width="124px" height="124px" viewBox="0 0 124 124" preserveAspectRatio="xMidYMid meet" ><rect id="svgEditorBackground" x="0" y="0" width="124" height="124" style="fill: none; stroke: none;"/><defs id="svgEditorDefs"><polygon id="svgEditorShapeDefs" style="fill:khaki;stroke:black;vector-effect:non-scaling-stroke;stroke-width:1px;"/><linearGradient gradientUnits="objectBoundingBox" id="lgrd2-fire" spreadMethod="pad" x1="0%" x2="100%" y1="0%" y2="0%"><stop offset="0%" style="stop-color:rgb(255,255,0);stop-opacity:1"/><stop offset="1" style="stop-color: rgb(255, 0, 208); stop-opacity: 0.65;"/></linearGradient></defs><path d="M0,0h4a4,4,0,0,0,-1.1719999999999997,-2.8280000000000003l-2.8280000000000003,2.8280000000000003l2.8280000000000003,-2.8280000000000003a4,4,0,0,0,-2.8280000000000003,-1.1719999999999997v4v-4a4,4,0,0,0,-2.8280000000000003,1.1719999999999997l2.8280000000000003,2.8280000000000003h-4a4,4,0,0,1,1.1719999999999997,-2.8280000000000003l2.8280000000000003,2.8280000000000003h-4a4,4,0,0,0,1.1719999999999997,2.8280000000000003l2.8280000000000003,-2.8280000000000003v4a4,4,0,0,1,-2.8280000000000003,-1.1719999999999997l2.8280000000000003,-2.8280000000000003v4a4,4,0,0,0,2.8280000000000003,-1.1719999999999997l-2.8280000000000003,-2.8280000000000003h4a4,4,0,0,1,-1.1719999999999997,2.8280000000000003l-2.8280000000000003,-2.8280000000000003Z" style="stroke: rgb(255, 255, 255); vector-effect: non-scaling-stroke; stroke-width: 1px;fill:url(#lgrd2-fire);" id="e1_shape" transform="matrix(8.125 0 0 8.125 50.5 52.5)"/></svg>